<?xml version="1.0" encoding="utf-8"?>
<!-- Generator: Adobe Illustrator 27.0.0, SVG Export Plug-In . SVG Version: 6.00 Build 0)  -->
<svg version="1.1" id="Layer_1" xmlns="http://www.w3.org/2000/svg" xmlns:xlink="http://www.w3.org/1999/xlink" x="0px" y="0px"
	 viewBox="0 0 264.1 128" style="enable-background:new 0 0 264.1 128;" xml:space="preserve">
<style type="text/css">
	.st0{fill:#353535;}
	.st1{fill:#009F64;}
</style>
<g>
	<polygon class="st0" points="32.6,72.8 58.3,3.5 6,33.8 32.6,72.8 	"/>
	<polygon class="st0" points="65.1,120.6 110.7,94.2 110.7,33.8 65.1,120.6 	"/>
	<polygon class="st1" points="32.6,72.8 32.6,72.8 6,83.3 6,94.2 58.3,124.5 65.1,120.6 	"/>
	<polygon class="st1" points="58.3,3.5 41.8,48 110.7,33.8 	"/>
	<g>
		<path class="st1" d="M170.5,82.4c-1,2.6-2.4,4.7-4,6.5c-1.7,1.8-3.6,3.1-5.8,4c-2.2,0.9-4.5,1.3-6.9,1.3c-3,0-5.5-0.6-7.5-1.8
			c-2-1.2-3.6-2.6-5-4.2v17.1h-11.4v-52h11.4v5.7c1.4-1.9,3.1-3.4,5-4.6c2-1.2,4.4-1.8,7.4-1.8c2.3,0,4.6,0.4,6.8,1.3
			c2.2,0.9,4.1,2.2,5.8,4c1.7,1.8,3,3.9,4.1,6.5c1,2.6,1.5,5.5,1.5,8.9v0.1C172,76.9,171.5,79.8,170.5,82.4z M160.6,73.4
			c0-1.7-0.3-3.2-0.8-4.5c-0.5-1.4-1.2-2.6-2.1-3.5s-1.9-1.7-3.1-2.3c-1.2-0.5-2.4-0.8-3.8-0.8c-1.3,0-2.6,0.3-3.8,0.8
			c-1.2,0.5-2.2,1.3-3.1,2.3c-0.9,1-1.6,2.2-2.1,3.5c-0.5,1.4-0.8,2.9-0.8,4.5v0.1c0,1.7,0.3,3.2,0.8,4.6c0.5,1.4,1.2,2.6,2.1,3.5
			c0.9,1,1.9,1.7,3.1,2.3c1.2,0.5,2.4,0.8,3.8,0.8c1.3,0,2.6-0.3,3.8-0.8c1.2-0.5,2.2-1.3,3.1-2.3s1.6-2.1,2.1-3.5
			c0.5-1.4,0.8-2.9,0.8-4.6V73.4z"/>
		<path class="st1" d="M201.6,93.5v-4.3c-1.4,1.5-3.1,2.8-5,3.7c-1.9,0.9-4.3,1.4-7.1,1.4c-1.9,0-3.7-0.3-5.3-0.8
			c-1.7-0.5-3.1-1.3-4.4-2.4c-1.2-1-2.2-2.3-3-3.8c-0.7-1.5-1.1-3.3-1.1-5.3v-0.1c0-2.2,0.4-4.1,1.2-5.7c0.8-1.6,1.9-2.9,3.3-4
			c1.4-1,3.1-1.8,5.1-2.4c2-0.5,4.1-0.8,6.5-0.8c2,0,3.8,0.1,5.3,0.4c1.5,0.3,3,0.7,4.4,1.2V70c0-2.4-0.7-4.2-2.2-5.5
			c-1.4-1.2-3.6-1.9-6.4-1.9c-2.2,0-4.1,0.2-5.8,0.6c-1.7,0.4-3.4,0.9-5.3,1.6l-2.8-8.7c2.2-0.9,4.5-1.7,6.9-2.3
			c2.4-0.6,5.3-0.9,8.7-0.9c6.2,0,10.8,1.5,13.6,4.6c2.8,3,4.3,7.3,4.3,12.7v23.2H201.6z M201.8,77.4c-1-0.4-2.1-0.8-3.3-1.1
			c-1.2-0.3-2.5-0.4-3.9-0.4c-2.4,0-4.4,0.5-5.8,1.4c-1.4,0.9-2.1,2.3-2.1,4.1v0.1c0,1.5,0.6,2.7,1.7,3.6c1.1,0.8,2.6,1.3,4.5,1.3
			c2.7,0,4.8-0.6,6.5-1.9c1.6-1.3,2.4-3,2.4-5.1V77.4z"/>
		<path class="st1" d="M242.8,94.5c-0.7,2-1.5,3.8-2.4,5.2c-0.8,1.4-1.8,2.6-2.8,3.5c-1,0.9-2.2,1.5-3.5,1.9
			c-1.3,0.4-2.8,0.6-4.5,0.6c-2.1,0-3.9-0.2-5.5-0.7c-1.6-0.5-3.1-1.2-4.6-2l3.8-8.2c0.7,0.4,1.6,0.8,2.4,1.1
			c0.9,0.3,1.7,0.4,2.4,0.4c1,0,1.8-0.2,2.4-0.6c0.6-0.4,1.1-1.1,1.6-2.1l-15.7-40.2h12l9.1,27.3l8.7-27.3h11.8L242.8,94.5z"/>
	</g>
</g>
</svg>
